<?xml version="1.0" encoding="utf-8"?>
<!-- Generator: Adobe Illustrator 22.1.0, SVG Export Plug-In . SVG Version: 6.00 Build 0)  -->
<svg version="1.1" id="Layer_1" xmlns="http://www.w3.org/2000/svg" xmlns:xlink="http://www.w3.org/1999/xlink" x="0px" y="0px"
	 viewBox="0 0 122 122" style="enable-background:new 0 0 122 122;" xml:space="preserve">
<style type="text/css">
	.st0{fill-opacity:0.152;}
	.st1{opacity:0.298;fill:url(#SVGID_1_);enable-background:new    ;}
	.st2{fill:url(#SVGID_2_);}
	.st3{opacity:0.5;fill:none;stroke:url(#SVGID_3_);enable-background:new    ;}
	.st4{fill:#2E4469;}
	.st5{fill:none;stroke:#2E4469;stroke-miterlimit:10;}
	.st6{fill:#FFFFFF;}
	.st7{font-family:'AmericanTypewriter-Semibold';}
	.st8{font-size:7.8209px;}
	.st9{font-family:'AmericanTypewriter-Bold';}
	.st10{font-size:36.2715px;}
</style>
<g transform="translate(1 1)">
	<g>
		<circle id="a_1_" class="st0" cx="60" cy="60" r="60"/>
	</g>
	
		<radialGradient id="SVGID_1_" cx="-1559.3997" cy="-983.0192" r="2.5654" gradientTransform="matrix(-16.9344 -0.2722 3.814420e-02 -2.0127 -26310.0508 -2306.4912)" gradientUnits="userSpaceOnUse">
		<stop  offset="0" style="stop-color:#000000"/>
		<stop  offset="1" style="stop-color:#000000;stop-opacity:2.000000e-03"/>
	</radialGradient>
	<path class="st1" d="M60.1,88.7c24.6,0.4,44.4,4.2,44.3,8.5s-20.1,7.5-44.6,7.1s-44.4-4.2-44.3-8.5S35.6,88.3,60.1,88.7z"/>
	<g>
		
			<linearGradient id="SVGID_2_" gradientUnits="userSpaceOnUse" x1="-1447.402" y1="33.295" x2="-1446.5062" y2="34.4961" gradientTransform="matrix(65 0 0 60 94115 -1972)">
			<stop  offset="0" style="stop-color:#5B79A2"/>
			<stop  offset="1" style="stop-color:#2E4469"/>
		</linearGradient>
		<path class="st2" d="M20.5,24.7H100V92H20.5V24.7z"/>
		
			<linearGradient id="SVGID_3_" gradientUnits="userSpaceOnUse" x1="-1447.025" y1="33.9791" x2="-1446.264" y2="34.831" gradientTransform="matrix(64 0 0 59 92645.5 -1971.5)">
			<stop  offset="0" style="stop-color:#B595FD"/>
			<stop  offset="1" style="stop-color:#B372BD;stop-opacity:0"/>
		</linearGradient>
		<path class="st3" d="M21.1,25.3h78.3v66.2H21.1V25.3z"/>
		<path class="st4" d="M28.3,79.5h32.4v5.4H28.3V79.5z"/>
	</g>
</g>
<g id="tree">
	<line class="st5" x1="81.6" y1="40" x2="88.2" y2="49"/>
	<line class="st5" x1="68.9" y1="57.4" x2="75.5" y2="66.4"/>
	<line class="st5" x1="74.1" y1="40.4" x2="69.7" y2="47.8"/>
	<line class="st5" x1="63.5" y1="58.2" x2="59.1" y2="65.6"/>
	<g id="_x34_">
		<ellipse class="st4" cx="77.7" cy="35.3" rx="6.6" ry="6.4"/>
		<text transform="matrix(1.039 0 0 1 75.1284 37.8813)" class="st6 st7 st8">4</text>
	</g>
	<g id="_x32_">
		<ellipse class="st4" cx="78.1" cy="71.6" rx="6.6" ry="6.4"/>
		<text transform="matrix(1.039 0 0 1 75.5308 74.1504)" class="st6 st7 st8">2</text>
	</g>
	<g id="_x30_">
		<ellipse class="st4" cx="56.8" cy="71.3" rx="6.6" ry="6.4"/>
		<text transform="matrix(1.039 0 0 1 54.248 73.9404)" class="st6 st7 st8">0</text>
	</g>
	<g id="_x31_">
		<ellipse class="st4" cx="65.6" cy="52.7" rx="6.6" ry="6.4"/>
		<text transform="matrix(1.039 0 0 1 63.0444 55.2197)" class="st6 st7 st8">1</text>
	</g>
	<g id="_x38_">
		<ellipse class="st4" cx="91.4" cy="52.7" rx="6.6" ry="6.4"/>
		<text transform="matrix(1.039 0 0 1 88.8569 55.2197)" class="st6 st7 st8">8</text>
	</g>
</g>
<text transform="matrix(1 0 0 1 28.376 51.2656)" class="st4 st9 st10">a</text>
</svg>
