<?xml version="1.0" encoding="utf-8"?>
<!-- Generator: Adobe Illustrator 22.1.0, SVG Export Plug-In . SVG Version: 6.00 Build 0)  -->
<svg version="1.1" id="Layer_1" xmlns="http://www.w3.org/2000/svg" xmlns:xlink="http://www.w3.org/1999/xlink" x="0px" y="0px"
	 viewBox="0 0 122 122" style="enable-background:new 0 0 122 122;" xml:space="preserve">
<style type="text/css">
	.st0{fill-opacity:0.152;}
	.st1{filter:url(#Adobe_OpacityMaskFilter);}
	.st2{fill:#FFFFFF;}
	.st3{opacity:0.298;mask:url(#c_1_);fill:url(#SVGID_1_);enable-background:new    ;}
	.st4{filter:url(#Adobe_OpacityMaskFilter_1_);}
	.st5{mask:url(#c_3_);}
	.st6{fill:url(#SVGID_2_);}
	.st7{opacity:0.5;fill:none;stroke:url(#SVGID_3_);enable-background:new    ;}
	.st8{fill:#2E4469;}
</style>
<g transform="translate(1 1)">
	<g>
		<circle id="a_1_" class="st0" cx="60" cy="60" r="60"/>
	</g>
	<defs>
		<filter id="Adobe_OpacityMaskFilter" filterUnits="userSpaceOnUse" x="15.5" y="88.7" width="88.9" height="15.7">
			<feColorMatrix  type="matrix" values="1 0 0 0 0  0 1 0 0 0  0 0 1 0 0  0 0 0 1 0"/>
		</filter>
	</defs>
	<mask maskUnits="userSpaceOnUse" x="15.5" y="88.7" width="88.9" height="15.7" id="c_1_">
		<g class="st1">
			<ellipse id="a_2_" class="st2" cx="59.9" cy="60" rx="65.1" ry="60"/>
		</g>
	</mask>
	
		<radialGradient id="SVGID_1_" cx="-260.5141" cy="620.2751" r="2.5639" gradientTransform="matrix(-16.9344 -0.2722 -3.814420e-02 2.0127 -4327.98 -1222.8502)" gradientUnits="userSpaceOnUse">
		<stop  offset="0" style="stop-color:#000000"/>
		<stop  offset="1" style="stop-color:#000000;stop-opacity:2.000000e-03"/>
	</radialGradient>
	<path class="st3" d="M60.1,88.7c24.6,0.4,44.4,4.2,44.3,8.5s-20.1,7.5-44.6,7.1s-44.4-4.2-44.3-8.5S35.6,88.3,60.1,88.7z"/>
	<defs>
		<filter id="Adobe_OpacityMaskFilter_1_" filterUnits="userSpaceOnUse" x="20.5" y="24.7" width="79.5" height="67.3">
			<feColorMatrix  type="matrix" values="1 0 0 0 0  0 1 0 0 0  0 0 1 0 0  0 0 0 1 0"/>
		</filter>
	</defs>
	<mask maskUnits="userSpaceOnUse" x="20.5" y="24.7" width="79.5" height="67.3" id="c_3_">
		<g class="st4">
			<ellipse id="a_4_" class="st2" cx="58.4" cy="56.1" rx="73.4" ry="67.3"/>
		</g>
	</mask>
	<g class="st5">
		
			<linearGradient id="SVGID_2_" gradientUnits="userSpaceOnUse" x1="-241.1716" y1="451.5382" x2="-240.2758" y2="450.3371" gradientTransform="matrix(65 0 0 -60 15710 27118)">
			<stop  offset="0" style="stop-color:#5B79A2"/>
			<stop  offset="1" style="stop-color:#2E4469"/>
		</linearGradient>
		<path class="st6" d="M20.5,24.7H100V92H20.5V24.7z"/>
		
			<linearGradient id="SVGID_3_" gradientUnits="userSpaceOnUse" x1="-241.0873" y1="451.3261" x2="-240.3264" y2="450.4742" gradientTransform="matrix(64 0 0 -59 15465.5 26661.5)">
			<stop  offset="0" style="stop-color:#B595FD"/>
			<stop  offset="1" style="stop-color:#B372BD;stop-opacity:0"/>
		</linearGradient>
		<path class="st7" d="M21.1,25.3h78.3v66.2H21.1V25.3z"/>
		<path class="st8" d="M29.3,78.5h32.4v5.4H29.3V78.5z"/>
	</g>
</g>
<g>
	<path class="st8" d="M38,50c-0.5,0-0.8,0.4-0.8,1.3v1.3c0,1,0.3,1.4,0.9,1.4c0.2,0,0.5,0,0.9-0.1c0.4-0.1,0.8-0.2,1.1-0.2
		c0.5,0,0.9,0.3,1.2,0.8c0.3,0.5,0.5,1.2,0.5,2c0,0.9-0.2,1.7-0.6,2.2c-0.4,0.6-0.9,0.8-1.6,0.8c-0.6,0-1.4-0.1-2.5-0.2
		c-1.1-0.1-2-0.2-2.5-0.2c-0.9,0-1.6,0-2.2,0.1l-1.5,0.2c-0.4,0.1-0.7,0.1-0.8,0.1c-0.7,0-1.2-0.3-1.6-0.8c-0.4-0.6-0.6-1.3-0.6-2.2
		c0-0.8,0.2-1.4,0.5-2c0.3-0.5,0.7-0.8,1.2-0.8c0.2,0,0.4,0,0.8,0.1C30.6,54,30.8,54,31,54c0.5,0,0.8-1,0.8-2.9V39.5
		c0-0.9,0-1.5-0.1-1.7c-0.1-0.7-0.4-1.1-0.8-1.1c-0.2,0-0.4,0-0.7,0.1C29.9,37,29.7,37,29.5,37c-0.5,0-0.9-0.3-1.2-0.8
		c-0.3-0.5-0.5-1.2-0.5-2c0-0.9,0.2-1.7,0.6-2.2c0.4-0.6,0.9-0.9,1.6-0.9c0,0,0.1,0,0.1,0c0,0,0.1,0,0.1,0c0.5,0,1.2,0.1,2.2,0.2
		c1,0.1,1.7,0.2,2.3,0.2c1,0,2-0.1,3.2-0.2c1.5-0.1,2.3-0.2,2.5-0.2c2.2,0,4,0.9,5.4,2.6c1.4,1.7,2.1,4,2.1,6.8
		c0,2.9-0.7,5.2-2.1,6.9c-1.4,1.7-3.3,2.6-5.8,2.6c-0.2,0-0.6,0-1.2,0L38,50z M37.1,42.9c0,0.8,0.1,1.3,0.2,1.4
		c0.1,0.2,0.4,0.3,0.8,0.3l0.5,0c2.4,0.2,3.6-1.1,3.6-3.9c0-2.7-1.1-4-3.2-4c-0.5,0-0.9,0-1.1,0.1c-0.4,0.1-0.6,0.5-0.7,1
		c0,0.3-0.1,0.7-0.1,1.3V42.9z"/>
</g>
<g>
	<path class="st8" d="M56.8,55.7v9.9c0,0.5,0.2,0.8,0.6,0.8c0.1,0,0.3,0,0.5-0.1c0.2,0,0.4-0.1,0.5-0.1c1,0,1.4,0.5,1.4,1.4
		c0,0.5-0.1,0.9-0.4,1.2s-0.6,0.5-1.1,0.5c-0.1,0-0.2,0-0.2,0l-1.3-0.2c-0.4,0-1-0.1-2-0.1c-0.9,0-1.4,0-1.6,0l-1.3,0.2
		c-0.1,0-0.1,0-0.2,0c-0.5,0-0.9-0.2-1.2-0.5s-0.5-0.7-0.5-1.2c0-0.4,0.1-0.8,0.4-1.1c0.2-0.3,0.6-0.4,1-0.4c0.1,0,0.3,0,0.6,0.1
		c0.3,0,0.5,0.1,0.6,0.1c0.4,0,0.6-0.2,0.7-0.7c0-0.1,0-0.5,0-1.1v-6.1c0-0.7-0.2-1-0.7-1c-0.1,0-0.2,0-0.5,0
		c-0.3,0.1-0.5,0.1-0.7,0.1c-0.9,0-1.3-0.5-1.3-1.5c0-0.5,0.2-0.9,0.5-1.2c0.3-0.3,0.7-0.5,1.2-0.5c0.2,0,0.6,0,1.1,0.1
		s0.9,0.1,1.1,0.1c0.3,0,0.7-0.1,1.3-0.2c0.2,0,0.5-0.1,0.7-0.1c0.4,0,0.7,0.1,0.8,0.3C56.8,54.9,56.8,55.2,56.8,55.7z"/>
	<path class="st8" d="M63.5,65c-0.8,0-1.2-0.5-1.2-1.5c0-1,0.4-1.4,1.2-1.4h0.7c0.4,0,0.7,0,1,0c0.3,0,0.6,0,1,0h0.6
		c0.8,0,1.2,0.5,1.2,1.4c0,0.6-0.1,1-0.3,1.2c-0.2,0.2-0.5,0.4-0.9,0.4c-0.2,0-0.4,0-0.8,0c-0.4,0-0.6,0-0.8,0c-0.2,0-0.5,0-0.8,0
		C63.9,64.9,63.7,65,63.5,65z"/>
	<path class="st8" d="M74.1,58.2L74,59.8c1.1-0.3,2-0.4,2.7-0.4c1.5,0,2.7,0.5,3.7,1.4c1,0.9,1.5,2,1.5,3.4c0,1.6-0.6,2.9-1.8,3.9
		c-1.2,1-2.7,1.5-4.6,1.5c-1.5,0-2.8-0.4-3.9-1.1s-1.6-1.6-1.6-2.7c0-0.7,0.2-1.2,0.6-1.7s1-0.6,1.6-0.6c0.6,0,1,0.2,1.4,0.5
		c0.4,0.3,0.6,0.8,0.6,1.3c0,0.3-0.1,0.7-0.4,1c0.5,0.3,1.1,0.5,1.7,0.5c0.7,0,1.4-0.2,1.8-0.6c0.5-0.4,0.7-0.9,0.7-1.5
		c0-0.6-0.3-1.2-0.8-1.6c-0.5-0.4-1.2-0.6-2-0.6c-0.4,0-0.9,0.1-1.4,0.2c-0.7,0.2-1.2,0.3-1.5,0.3c-0.6,0-1-0.2-1.4-0.6
		c-0.4-0.4-0.6-0.8-0.6-1.4c0,0,0-0.1,0-0.2c0-0.1,0-0.2,0-0.3l0.4-3.7c0-0.5,0.1-1.1,0.2-1.8c0.1-0.3,0.5-0.5,1.1-0.5
		c0,0,0.3,0,1,0s1.4,0,2.2,0l3.8-0.1h0.9c0.6,0,1,0.3,1,0.8c0,0.2,0,0.4,0,0.6c0,0.1,0,0.3,0,0.6l0.1,1.2v0.2c0,0.5-0.2,0.8-0.5,1.1
		s-0.7,0.4-1.2,0.4c-0.7,0-1.2-0.4-1.5-1.1c-0.1-0.2-0.2-0.4-0.3-0.5s-0.3-0.1-0.6-0.1h-2.4c-0.2,0-0.4,0-0.5,0.1
		C74.2,57.7,74.2,57.9,74.1,58.2z"/>
	<path class="st8" d="M90.5,69.6c-2.1,0-3.7-0.7-4.9-2s-1.7-3.2-1.7-5.7c0-2.4,0.6-4.3,1.7-5.7c1.1-1.4,2.7-2.1,4.7-2.1
		c2.1,0,3.7,0.7,4.9,2c1.2,1.3,1.7,3.2,1.7,5.6c0,2.5-0.6,4.5-1.7,5.8C94.1,68.9,92.5,69.6,90.5,69.6z M90.4,57.1
		c-0.9,0-1.5,0.4-2,1.3c-0.5,0.8-0.7,2-0.7,3.5c0,1.5,0.2,2.6,0.7,3.5c0.5,0.8,1.2,1.3,2,1.3c0.9,0,1.6-0.4,2.1-1.3
		c0.5-0.8,0.7-2,0.7-3.5c0-1.5-0.2-2.6-0.7-3.5C91.9,57.5,91.2,57.1,90.4,57.1z"/>
</g>
</svg>
