<?xml version="1.0" encoding="utf-8"?>
<!-- Generator: Adobe Illustrator 22.1.0, SVG Export Plug-In . SVG Version: 6.00 Build 0)  -->
<svg version="1.1" id="Layer_1" xmlns="http://www.w3.org/2000/svg" xmlns:xlink="http://www.w3.org/1999/xlink" x="0px" y="0px"
	 viewBox="0 0 122 122" style="enable-background:new 0 0 122 122;" xml:space="preserve">
<style type="text/css">
	.st0{fill-opacity:0.152;}
	.st1{opacity:0.298;fill:url(#SVGID_1_);enable-background:new    ;}
	.st2{fill:url(#SVGID_2_);}
	.st3{opacity:0.5;fill:none;stroke:url(#SVGID_3_);enable-background:new    ;}
	.st4{fill:#2E4469;}
	.st5{font-family:'AmericanTypewriter-Bold';}
	.st6{font-size:24px;}
	.st7{font-size:16px;}
</style>
<g transform="translate(1 1)">
	<g>
		<circle id="a_1_" class="st0" cx="60" cy="60" r="60"/>
	</g>
	
		<radialGradient id="SVGID_1_" cx="-1039.844" cy="-655.1238" r="2.5654" gradientTransform="matrix(-16.9344 -0.2722 3.814420e-02 -2.0127 -17524.1953 -1505.1133)" gradientUnits="userSpaceOnUse">
		<stop  offset="0" style="stop-color:#000000"/>
		<stop  offset="1" style="stop-color:#000000;stop-opacity:2.000000e-03"/>
	</radialGradient>
	<path class="st1" d="M60.1,88.7c24.6,0.4,44.4,4.2,44.3,8.5s-20.1,7.5-44.6,7.1s-44.4-4.2-44.3-8.5S35.6,88.3,60.1,88.7z"/>
	<g>
		
			<linearGradient id="SVGID_2_" gradientUnits="userSpaceOnUse" x1="-964.9097" y1="22.1616" x2="-964.014" y2="23.3627" gradientTransform="matrix(65 0 0 60 62753 -1304)">
			<stop  offset="0" style="stop-color:#5B79A2"/>
			<stop  offset="1" style="stop-color:#2E4469"/>
		</linearGradient>
		<path class="st2" d="M20.5,24.7H100V92H20.5V24.7z"/>
		
			<linearGradient id="SVGID_3_" gradientUnits="userSpaceOnUse" x1="-964.65" y1="22.6571" x2="-963.8891" y2="23.509" gradientTransform="matrix(64 0 0 59 61773.5 -1303.5)">
			<stop  offset="0" style="stop-color:#B595FD"/>
			<stop  offset="1" style="stop-color:#B372BD;stop-opacity:0"/>
		</linearGradient>
		<path class="st3" d="M21.1,25.3h78.3v66.2H21.1V25.3z"/>
		<path class="st4" d="M29.3,78.5h32.4v5.4H29.3V78.5z"/>
	</g>
</g>
<g>
	<path class="st4" d="M38,50c-0.5,0-0.8,0.4-0.8,1.3v1.3c0,1,0.3,1.4,0.9,1.4c0.2,0,0.5,0,0.9-0.1s0.8-0.2,1.1-0.2
		c0.5,0,0.9,0.3,1.2,0.8s0.5,1.2,0.5,2c0,0.9-0.2,1.7-0.6,2.2c-0.4,0.6-0.9,0.8-1.6,0.8c-0.6,0-1.4-0.1-2.5-0.2
		c-1.1-0.1-2-0.2-2.5-0.2c-0.9,0-1.6,0-2.2,0.1l-1.5,0.2c-0.4,0.1-0.7,0.1-0.8,0.1c-0.7,0-1.2-0.3-1.6-0.8c-0.4-0.6-0.6-1.3-0.6-2.2
		c0-0.8,0.2-1.4,0.5-2c0.3-0.5,0.7-0.8,1.2-0.8c0.2,0,0.4,0,0.8,0.1C30.6,54,30.8,54,31,54c0.5,0,0.8-1,0.8-2.9V39.5
		c0-0.9,0-1.5-0.1-1.7c-0.1-0.7-0.4-1.1-0.8-1.1c-0.2,0-0.4,0-0.7,0.1C29.9,37,29.7,37,29.5,37c-0.5,0-0.9-0.3-1.2-0.8
		c-0.3-0.5-0.5-1.2-0.5-2c0-0.9,0.2-1.7,0.6-2.2c0.4-0.6,0.9-0.9,1.6-0.9h0.1h0.1c0.5,0,1.2,0.1,2.2,0.2s1.7,0.2,2.3,0.2
		c1,0,2-0.1,3.2-0.2c1.5-0.1,2.3-0.2,2.5-0.2c2.2,0,4,0.9,5.4,2.6s2.1,4,2.1,6.8c0,2.9-0.7,5.2-2.1,6.9C44.4,49.1,42.5,50,40,50
		c-0.2,0-0.6,0-1.2,0H38z M37.1,42.9c0,0.8,0.1,1.3,0.2,1.4c0.1,0.2,0.4,0.3,0.8,0.3h0.5c2.4,0.2,3.6-1.1,3.6-3.9c0-2.7-1.1-4-3.2-4
		c-0.5,0-0.9,0-1.1,0.1c-0.4,0.1-0.6,0.5-0.7,1c0,0.3-0.1,0.7-0.1,1.3V42.9z"/>
</g>
<text transform="matrix(1 0 0 1 52.6035 47.9506)" class="st4 st5 st6">151</text>
<text transform="matrix(1 0 0 1 52.3598 74.8025)" class="st4 st5 st6">200</text>
<text transform="matrix(1 0 0 1 68.8419 56.9998)" class="st4 st5 st7">—</text>
</svg>
