<?xml version="1.0" encoding="utf-8"?>
<!-- Generator: Adobe Illustrator 22.1.0, SVG Export Plug-In . SVG Version: 6.00 Build 0)  -->
<svg version="1.1" id="Layer_1" xmlns="http://www.w3.org/2000/svg" xmlns:xlink="http://www.w3.org/1999/xlink" x="0px" y="0px"
	 viewBox="0 0 122 122" style="enable-background:new 0 0 122 122;" xml:space="preserve">
<style type="text/css">
	.st0{fill-opacity:0.152;}
	.st1{opacity:0.298;fill:url(#SVGID_1_);enable-background:new    ;}
	.st2{fill:url(#SVGID_2_);}
	.st3{opacity:0.5;fill:none;stroke:url(#SVGID_3_);enable-background:new    ;}
	.st4{fill:#2E4469;}
	.st5{fill:url(#SVGID_4_);}
	.st6{fill:url(#SVGID_5_);}
	.st7{fill:url(#SVGID_6_);}
	.st8{fill:url(#SVGID_7_);}
	.st9{fill:url(#SVGID_8_);}
	.st10{fill:url(#SVGID_9_);}
	.st11{fill:url(#SVGID_10_);}
	.st12{font-family:'AmericanTypewriter-Bold';}
	.st13{font-size:24px;}
	.st14{fill:#2F429B;}
</style>
<g transform="translate(1 1)">
	<g>
		<circle id="a_1_" class="st0" cx="60" cy="60" r="60"/>
	</g>
	
		<radialGradient id="SVGID_1_" cx="-1299.6218" cy="1276.0715" r="2.5654" gradientTransform="matrix(-16.9344 -0.2722 -3.814420e-02 2.0127 -21899.6914 -2825.6062)" gradientUnits="userSpaceOnUse">
		<stop  offset="0" style="stop-color:#000000"/>
		<stop  offset="1" style="stop-color:#000000;stop-opacity:2.000000e-03"/>
	</radialGradient>
	<path class="st1" d="M60.1,88.7c24.6,0.4,44.4,4.2,44.3,8.5s-20.1,7.5-44.6,7.1s-44.4-4.2-44.3-8.5S35.6,88.3,60.1,88.7z"/>
	<g>
		
			<linearGradient id="SVGID_2_" gradientUnits="userSpaceOnUse" x1="-1206.1559" y1="429.2717" x2="-1205.2601" y2="428.0706" gradientTransform="matrix(65 0 0 -60 78434 25782)">
			<stop  offset="0" style="stop-color:#5B79A2"/>
			<stop  offset="1" style="stop-color:#2E4469"/>
		</linearGradient>
		<path class="st2" d="M20.5,24.7H100V92H20.5V24.7z"/>
		
			<linearGradient id="SVGID_3_" gradientUnits="userSpaceOnUse" x1="-1205.8375" y1="428.6819" x2="-1205.0765" y2="427.83" gradientTransform="matrix(64 0 0 -59 77209.5 25325.5)">
			<stop  offset="0" style="stop-color:#B595FD"/>
			<stop  offset="1" style="stop-color:#B372BD;stop-opacity:0"/>
		</linearGradient>
		<path class="st3" d="M21.1,25.3h78.3v66.2H21.1V25.3z"/>
		<path class="st4" d="M27.3,79.5h32.4v5.4H27.3V79.5z"/>
	</g>
</g>
<linearGradient id="SVGID_4_" gradientUnits="userSpaceOnUse" x1="65.2198" y1="79.8694" x2="35.6786" y2="79.8694" gradientTransform="matrix(4.489659e-11 -1 1 4.489659e-11 13 141)">
	<stop  offset="0" style="stop-color:#5B79A2"/>
	<stop  offset="1" style="stop-color:#2E4469"/>
</linearGradient>
<rect x="90.9" y="43.3" class="st5" width="4" height="34"/>
<linearGradient id="SVGID_5_" gradientUnits="userSpaceOnUse" x1="65.002" y1="74.3978" x2="39.6936" y2="74.3978" gradientTransform="matrix(4.489700e-11 -1 1 4.489700e-11 13 141)">
	<stop  offset="0" style="stop-color:#5B79A2"/>
	<stop  offset="1" style="stop-color:#2E4469"/>
</linearGradient>
<rect x="85.4" y="48.2" class="st6" width="4" height="29.1"/>
<linearGradient id="SVGID_6_" gradientUnits="userSpaceOnUse" x1="64.6542" y1="68.9262" x2="46.1076" y2="68.9262" gradientTransform="matrix(4.489700e-11 -1 1 4.489700e-11 13 141)">
	<stop  offset="0" style="stop-color:#5B79A2"/>
	<stop  offset="1" style="stop-color:#2E4469"/>
</linearGradient>
<rect x="79.9" y="56" class="st7" width="4" height="21.3"/>
<linearGradient id="SVGID_7_" gradientUnits="userSpaceOnUse" x1="64.4599" y1="63.4546" x2="49.6893" y2="63.4546" gradientTransform="matrix(4.489700e-11 -1 1 4.489700e-11 13 141)">
	<stop  offset="0" style="stop-color:#5B79A2"/>
	<stop  offset="1" style="stop-color:#2E4469"/>
</linearGradient>
<rect x="74.5" y="60.3" class="st8" width="4" height="17"/>
<linearGradient id="SVGID_8_" gradientUnits="userSpaceOnUse" x1="64.296" y1="57.983" x2="52.7124" y2="57.983" gradientTransform="matrix(4.489700e-11 -1 1 4.489700e-11 13 141)">
	<stop  offset="0" style="stop-color:#5B79A2"/>
	<stop  offset="1" style="stop-color:#2E4469"/>
</linearGradient>
<rect x="69" y="64" class="st9" width="4" height="13.3"/>
<linearGradient id="SVGID_9_" gradientUnits="userSpaceOnUse" x1="64.08" y1="52.5114" x2="56.6947" y2="52.5114" gradientTransform="matrix(4.489700e-11 -1 1 4.489700e-11 13 141)">
	<stop  offset="0" style="stop-color:#5B79A2"/>
	<stop  offset="1" style="stop-color:#2E4469"/>
</linearGradient>
<rect x="63.5" y="68.8" class="st10" width="4" height="8.5"/>
<linearGradient id="SVGID_10_" gradientUnits="userSpaceOnUse" x1="63.89" y1="47.0397" x2="60.1973" y2="47.0397" gradientTransform="matrix(4.489700e-11 -1 1 4.489700e-11 13 141)">
	<stop  offset="0" style="stop-color:#5B79A2"/>
	<stop  offset="1" style="stop-color:#2E4469"/>
</linearGradient>
<rect x="58" y="73" class="st11" width="4" height="4.3"/>
<text transform="matrix(1 0 0 1 26.8057 48.7756)" class="st4 st12 st13">Sort</text>
<line class="st14" x1="58" y1="77.3" x2="94.9" y2="77.3"/>
</svg>
